<?xml version="1.0" encoding="UTF-8"?>
<svg id="_Шар_2" data-name="Шар 2" xmlns="http://www.w3.org/2000/svg" viewBox="0 0 424.59 117.56">
  <defs>
    <style>
      .cls-1 {
        letter-spacing: .13em;
      }

      .cls-2 {
        letter-spacing: .15em;
      }

      .cls-3 {
        fill: #fff;
        font-family: Montserrat-Black, Montserrat;
        font-size: 72px;
        font-weight: 800;
      }

      .cls-4 {
        fill: #e63946;
      }

      .cls-5 {
        letter-spacing: .2em;
      }

      .cls-6 {
        letter-spacing: .11em;
      }

      .cls-7 {
        fill: #ff9f1c;
      }

      .cls-8 {
        letter-spacing: .15em;
      }

      .cls-9 {
        fill: #3a86ff;
      }

      .cls-10 {
        letter-spacing: .14em;
      }

      .cls-11 {
        fill: #5477a8;
        font-family: Montserrat-Regular, Montserrat;
        font-size: 21px;
      }

      .cls-12 {
        letter-spacing: .14em;
      }

      .cls-13 {
        letter-spacing: .2em;
      }

      .cls-14 {
        letter-spacing: .2em;
      }

      .cls-15 {
        letter-spacing: .22em;
      }

      .cls-16 {
        letter-spacing: .16em;
      }

      .cls-17 {
        letter-spacing: .15em;
      }
    </style>
  </defs>
  <g id="dark">
    <polygon class="cls-4" points="55.4 9.98 81.97 56 108.54 9.98 55.4 9.98"/>
    <polygon class="cls-9" points="57.32 108.29 59.07 105.25 238.88 105.25 238.88 108.29 57.32 108.29"/>
    <polygon class="cls-7" points="64.85 95.34 68.29 89.38 238.88 89.38 238.88 95.38 64.85 95.34"/>
    <polygon class="cls-4" points="79.28 70.33 74.08 79.33 424.05 79.38 424.05 70.42 79.28 70.33"/>
    <polygon class="cls-9" points="54.27 103.98 0 9.98 3.5 9.98 56.02 100.95 54.27 103.98"/>
    <polygon class="cls-7" points="15.05 9.98 21.93 9.98 65.23 84.99 61.79 90.95 15.05 9.98"/>
    <polygon class="cls-4" points="33.59 10.09 43.92 9.98 76.23 65.94 71.03 74.94 33.59 10.09"/>
    <text class="cls-3" transform="translate(116.11 61.2)"><tspan class="cls-15" x="0" y="0">L</tspan><tspan class="cls-6" x="60.39" y="0">A</tspan><tspan class="cls-5" x="126.27" y="0">Y</tspan><tspan class="cls-14" x="191.76" y="0">E</tspan><tspan class="cls-13" x="254.84" y="0">R</tspan></text>
    <text class="cls-11" transform="translate(251.69 107.92)"><tspan class="cls-2" x="0" y="0">3</tspan><tspan class="cls-16" x="14.93" y="0">D </tspan><tspan class="cls-1" x="44.5" y="0">P</tspan><tspan class="cls-12" x="62.28" y="0">R</tspan><tspan class="cls-10" x="80.49" y="0">I</tspan><tspan class="cls-17" x="89.69" y="0">NT</tspan><tspan class="cls-10" x="125.1" y="0">I</tspan><tspan class="cls-8" x="134.3" y="0">N</tspan><tspan class="cls-16" x="154.47" y="0">G</tspan></text>
  </g>
</svg>